<svg width="158" height="79" viewBox="0 0 158 79" fill="none" xmlns="http://www.w3.org/2000/svg">
<path d="M29.0765 67.7694C28.6487 68.1972 28.0684 68.4375 27.4634 68.4375L45.8624 68.4375C45.2574 68.4375 44.6772 68.1972 44.2493 67.7694C43.8215 67.3415 43.5812 66.7613 43.5812 66.1563V65.7297L29.7447 65.7297V66.1563C29.7447 66.7613 29.5043 67.3416 29.0765 67.7694Z" fill="url(#paint0_linear_119_15)"/>
<path d="M43.5812 66.1563C43.5812 66.7613 43.8215 67.3415 44.2493 67.7694C44.6772 68.1972 45.2574 68.4375 45.8624 68.4375H59.5585C60.7685 68.4375 61.929 67.9568 62.7847 67.1012C63.6403 66.2455 64.121 65.0851 64.121 63.875L64.1104 35.313L61.2192 32.0488V63.875C60.9903 65.0575 60.675 65.5181 59.5585 65.7297H47.7171H43.5812V66.1563Z" fill="url(#paint1_linear_119_15)"/>
<path d="M9.05078 35.1646L9.19916 63.875C9.19916 65.0851 9.67985 66.2456 10.5355 67.1012C11.3911 67.9568 12.5516 68.4375 13.7617 68.4375H27.4634C28.0684 68.4375 28.6487 68.1972 29.0765 67.7694C29.5043 67.3416 29.7447 66.7613 29.7447 66.1563V65.7297H25.6088H13.7617C12.9817 65.3009 12.7056 64.9316 12.7122 63.875V31.1585L9.05078 35.1646Z" fill="url(#paint2_linear_119_15)"/>
<path d="M69.9931 34.8104L59.3282 24.6076V9.125C59.3282 8.51997 59.0879 7.93973 58.6601 7.51191C58.2323 7.0841 57.652 6.84375 57.047 6.84375H50.2032C49.5982 6.84375 49.018 7.0841 48.5901 7.51191C48.1623 7.93973 47.922 8.51997 47.922 9.125V13.6875L39.6639 5.79152C38.8911 5.0102 37.7419 4.5625 36.5001 4.5625C35.2625 4.5625 34.1161 5.0102 33.3434 5.79295L3.01701 34.8076C2.13017 35.6631 2.01896 37.0703 2.82595 37.9971C3.0286 38.231 3.27673 38.4212 3.55524 38.5562C3.83375 38.6912 4.13681 38.7681 4.44598 38.7823C4.75516 38.7964 5.06397 38.7475 5.35364 38.6385C5.64331 38.5295 5.90776 38.3627 6.13091 38.1482L35.7159 9.87781C35.9281 9.67475 36.2106 9.56142 36.5043 9.56142C36.7981 9.56142 37.0805 9.67475 37.2928 9.87781L66.8806 38.1482C67.3164 38.5662 67.9002 38.7943 68.504 38.7825C69.1077 38.7708 69.6822 38.5201 70.1014 38.0855C70.9769 37.1787 70.9042 35.6816 69.9931 34.8104Z" fill="url(#paint3_linear_119_15)"/>
<path fill-rule="evenodd" clip-rule="evenodd" d="M28.5187 60.5251C33.1161 56.326 38.1935 58.5477 43.2984 56.6445L38.7548 41.5083C38.1935 39.628 39.0222 38.0661 41.4009 37.4804L51.4232 35.0395C51.102 34.1844 50.2207 33.0131 49.1245 31.9878C42.9509 26.348 32.7411 26.1299 26.6487 31.4033C17.7764 39.1415 24.5113 47.3193 18.6577 52.6647C15.8392 55.239 12.5294 57.5227 9.21204 59.6463L12.6118 66.1748L21.3712 68.4004C23.74 65.4693 26.1889 62.6531 28.5187 60.5251ZM26.515 45.463C26.7287 46.0498 27.21 46.3181 27.7975 46.172L33.9986 44.6821C34.5598 44.536 34.9073 44.0484 34.7473 43.4867C34.5861 42.9741 33.9986 42.6807 33.4911 42.8029L27.2637 44.3407C26.7025 44.4869 26.355 45.0246 26.515 45.463ZM27.2888 48.3696C27.5025 48.9553 28.01 49.2236 28.5987 49.0775L34.7724 47.5887C35.3336 47.4426 35.7073 46.954 35.5211 46.3923C35.3599 45.8797 34.7724 45.6114 34.2649 45.7095L28.0375 47.2713C27.4763 47.3935 27.1288 47.9301 27.2888 48.3696ZM28.1175 51.2992C28.2512 51.8609 28.8125 52.1292 29.3737 51.983L35.6273 50.4452C36.1348 50.323 36.4573 49.7853 36.3498 49.2978C36.3161 49.1764 36.2552 49.0626 36.171 48.9637C36.0867 48.8649 35.9809 48.783 35.8603 48.7234C35.7397 48.6637 35.6068 48.6276 35.4701 48.6172C35.3334 48.6068 35.1959 48.6224 35.0661 48.663L28.8662 50.1758C28.305 50.323 27.9838 50.7866 28.1175 51.2992Z" fill="url(#paint4_linear_119_15)"/>
<path fill-rule="evenodd" clip-rule="evenodd" d="M49.4469 53.2264C48.4788 54.0775 47.4126 54.8305 46.267 55.4721L43.2459 45.439C44.102 45.5612 44.8508 45.5121 45.7583 45.2929L53.8568 43.2664C54.5518 46.245 52.8144 50.4441 49.4469 53.2264Z" fill="url(#paint5_linear_119_15)"/>
<path d="M89.003 25.0616C89.2772 25.5103 89.4143 26.4077 89.4143 27.7537C89.4143 29.0749 89.1401 30.1966 88.5917 31.1189C88.0932 31.8417 87.0338 32.8513 85.4136 34.1475C83.7933 35.4187 82.5968 36.0544 81.8241 36.0544C80.4531 36.0544 78.8827 35.344 77.1129 33.9231C75.3431 32.4774 74.2214 30.8945 73.7478 29.1746L77.8981 26.3329C78.297 27.5045 78.9326 28.5763 79.805 29.5485C80.6775 30.5206 81.2882 31.0067 81.6371 31.0067C82.011 31.0067 82.3974 30.8945 82.7962 30.6702C83.22 30.4209 83.5441 30.1716 83.7684 29.9224C84.0924 29.5235 84.2545 28.9004 84.2545 28.0529C84.2545 27.2053 84.0551 26.6819 83.6562 26.4825C83.1577 26.0587 82.1855 25.4979 80.7398 24.7999C79.319 24.1019 77.9978 23.3541 76.7764 22.5565C75.555 21.7339 74.7698 20.9362 74.4208 20.1635C74.0968 19.3908 73.9348 18.3937 73.9348 17.1723C73.9348 15.9259 74.209 14.8416 74.7573 13.9193C75.2559 13.1965 76.3153 12.1994 77.9355 10.9281C79.5558 9.63192 80.7522 8.98383 81.525 8.98383C82.896 8.98383 84.4663 9.7067 86.2361 11.1525C88.006 12.5733 89.1277 14.1437 89.6013 15.8636L85.451 18.7427C85.0521 17.5711 84.4165 16.4993 83.544 15.5271C82.6716 14.53 82.0484 14.0315 81.6745 14.0315C81.3256 14.0315 80.9392 14.1437 80.5154 14.368C80.0917 14.5924 79.7427 14.879 79.4685 15.228C79.2192 15.552 79.0946 16.1254 79.0946 16.9479C79.0946 17.7456 79.3439 18.2815 79.8424 18.5557C80.2412 18.9047 81.1511 19.4531 82.5719 20.2009C86.2112 22.195 88.3549 23.8153 89.003 25.0616ZM105.45 25.4729V26.819H96.4013C96.4013 28.3146 96.5883 29.4986 96.9622 30.371C97.0868 30.6702 97.3112 30.9818 97.6352 31.3058C97.9593 31.6049 98.2958 31.7545 98.6447 31.7545C98.9937 31.7545 99.4299 31.4554 99.9534 30.8571C100.477 30.2589 100.888 29.536 101.187 28.6885L105.038 31.418C104.365 32.6643 103.331 33.7486 101.935 34.6709C100.564 35.5932 99.4549 36.0544 98.6074 36.0544C97.7598 36.0544 96.526 35.3938 94.9057 34.0727C93.3104 32.7516 92.3383 31.7296 91.9893 31.0067C91.6403 30.2589 91.4658 28.4392 91.4658 25.5477C91.4658 22.6313 91.6403 20.8116 91.9893 20.0887C92.3383 19.3409 93.3104 18.3065 94.9057 16.9853C96.526 15.6642 97.71 15.0037 98.4578 15.0037C99.2056 15.0037 100.377 15.6642 101.972 16.9853C103.593 18.3065 104.577 19.3409 104.926 20.0887C105.275 20.8116 105.45 22.6063 105.45 25.4729ZM100.253 20.7991C100.078 20.4502 99.7914 20.1137 99.3925 19.7896C99.0186 19.4656 98.6572 19.3035 98.3082 19.3035C97.9842 19.3035 97.6103 19.64 97.1865 20.3131C96.7628 20.9612 96.501 21.9458 96.4013 23.2669H100.664C100.589 21.9458 100.452 21.1232 100.253 20.7991ZM130.663 21.0609V24.2764C130.663 27.2677 130.501 29.1247 130.177 29.8476C129.878 30.5705 128.931 31.7919 127.336 33.5118C125.74 35.2069 124.569 36.0544 123.821 36.0544C122.924 36.0544 121.465 34.646 119.446 31.8293C117.427 34.646 115.969 36.0544 115.072 36.0544C114.324 36.0544 113.14 35.1944 111.52 33.4744C109.924 31.7545 108.977 30.5081 108.678 29.7354C108.379 28.9627 108.229 27.143 108.229 24.2764V15.4523H113.165V24.2764C113.165 26.8938 113.252 28.4392 113.426 28.9128C113.601 29.3864 113.863 29.86 114.212 30.3337C114.561 30.7823 114.847 31.0067 115.072 31.0067C115.296 31.0067 115.57 30.7823 115.894 30.3337C116.243 29.86 116.505 29.3989 116.679 28.9502C116.879 28.5015 116.979 27.3923 116.979 25.6225V15.4523H121.914V24.2764C121.914 26.8938 122.001 28.4392 122.176 28.9128C122.35 29.3864 122.612 29.86 122.961 30.3337C123.31 30.7823 123.597 31.0067 123.821 31.0067C124.045 31.0067 124.319 30.7823 124.644 30.3337C124.993 29.86 125.254 29.3989 125.429 28.9502C125.628 28.5015 125.728 26.9436 125.728 24.2764V22.6687C125.728 20.5249 125.229 18.9296 124.232 17.8827L127.971 15.0037C129.766 16.4245 130.663 18.4436 130.663 21.0609ZM147.263 15.4523V30.7823C147.413 31.6548 147.999 32.4275 149.021 33.1005L145.656 35.9796C145.332 35.7552 144.933 35.3564 144.459 34.7831C143.986 34.2098 143.587 33.624 143.263 33.0258C141.194 35.0448 139.748 36.0544 138.925 36.0544C138.327 36.0544 137.355 35.3938 136.009 34.0727C134.688 32.7516 133.865 31.6797 133.541 30.8571C133.217 30.0345 133.055 28.2647 133.055 25.5477C133.055 22.8058 133.217 21.0235 133.541 20.2009C133.865 19.3783 134.688 18.3065 136.009 16.9853C137.355 15.6642 138.327 15.0037 138.925 15.0037C139.798 15.0037 141.206 15.901 143.151 17.6958L143.599 15.4523H147.263ZM142.066 21.173C141.892 20.849 141.53 20.5249 140.982 20.2009C140.458 19.8519 140.06 19.6774 139.785 19.6774C139.511 19.6774 139.212 19.8395 138.888 20.1635C138.589 20.4876 138.39 20.7867 138.29 21.0609C137.966 21.5096 137.804 23.0052 137.804 25.5477C137.804 28.0653 137.966 29.5485 138.29 29.9971C138.39 30.2464 138.589 30.5455 138.888 30.8945C139.212 31.2186 139.511 31.3806 139.785 31.3806C140.06 31.3806 140.458 31.2186 140.982 30.8945C141.53 30.5455 141.879 30.234 142.029 29.9598C142.203 29.6856 142.303 28.2273 142.328 25.5851C142.328 22.9429 142.241 21.4722 142.066 21.173Z" fill="url(#paint6_linear_119_15)"/>
<path d="M79.1369 54.0042V57.9951C79.1369 60.0533 79.2373 61.3209 79.4381 61.7978C79.6389 62.2495 79.9778 62.739 80.4547 63.2661C80.9567 63.7681 81.3959 64.0191 81.7724 64.0191C82.1489 64.0191 82.6258 63.7555 83.2031 63.2284C83.7804 62.7013 84.182 62.2245 84.4079 61.7978C84.5585 61.3711 84.6464 60.7436 84.6715 59.9153H82.0736V55.7361H89.566V68.9512H85.9139L85.4621 66.391C83.7302 68.399 82.4501 69.403 81.6218 69.403C80.7935 69.403 79.4758 68.5873 77.6686 66.9558C75.8865 65.2992 74.7821 63.9563 74.3554 62.9272C74.0793 62.2746 73.9412 60.6306 73.9412 57.9951V54.0042C73.9412 50.8667 74.1922 48.8587 74.6942 47.9802C75.1962 47.1017 76.263 45.9095 77.8945 44.4035C79.5511 42.8975 80.781 42.1445 81.5842 42.1445C82.9647 42.1445 84.546 42.9477 86.3281 44.5541C88.1102 46.1605 89.2397 47.9175 89.7166 49.8251L85.5374 52.7241C85.1358 51.3687 84.4958 50.1137 83.6173 48.9591C82.7388 47.8045 82.1238 47.2272 81.7724 47.2272C81.1449 47.2272 80.4296 47.8422 79.6264 49.0721C79.3001 49.549 79.1369 51.193 79.1369 54.0042ZM106.526 48.6579V64.0944C106.677 64.9729 107.267 65.751 108.296 66.4287L104.907 69.3277C104.581 69.1018 104.179 68.7002 103.702 68.1229C103.225 67.5456 102.824 66.9558 102.498 66.3534C100.414 68.3865 98.9584 69.403 98.1301 69.403C97.5277 69.403 96.5488 68.7379 95.1934 67.4076C93.8631 66.0773 93.0348 64.998 92.7085 64.1697C92.3822 63.3414 92.2191 61.5593 92.2191 58.8234C92.2191 56.0624 92.3822 54.2678 92.7085 53.4395C93.0348 52.6112 93.8631 51.5319 95.1934 50.2016C96.5488 48.8713 97.5277 48.2061 98.1301 48.2061C99.0086 48.2061 100.427 49.1097 102.385 50.9169L102.836 48.6579H106.526ZM101.293 54.4184C101.117 54.0921 100.753 53.7658 100.201 53.4395C99.6738 53.0881 99.2722 52.9124 98.9961 52.9124C98.72 52.9124 98.4188 53.0755 98.0925 53.4018C97.7913 53.7281 97.5905 54.0293 97.4901 54.3054C97.1638 54.7572 97.0006 56.2632 97.0006 58.8234C97.0006 61.3585 97.1638 62.8519 97.4901 63.3037C97.5905 63.5547 97.7913 63.8559 98.0925 64.2073C98.4188 64.5336 98.72 64.6968 98.9961 64.6968C99.2722 64.6968 99.6738 64.5336 100.201 64.2073C100.753 63.8559 101.104 63.5422 101.255 63.2661C101.431 62.99 101.531 61.5217 101.556 58.8611C101.556 56.2005 101.468 54.7196 101.293 54.4184ZM116.265 68.9512H111.296V55.962C111.296 54.6819 111.145 53.6905 110.844 52.9877C110.543 52.2849 110.066 51.6699 109.413 51.1428L113.555 48.2438C114.483 48.9968 115.173 49.8627 115.625 50.8416C117.483 49.0846 118.788 48.2061 119.541 48.2061C120.319 48.2061 121.474 48.9089 123.005 50.3145C124.561 51.695 125.339 53.063 125.339 54.4184V61.6848C125.339 62.9649 125.49 63.9563 125.791 64.6591C126.092 65.3619 126.569 65.9769 127.221 66.504L123.08 69.403C121.273 67.9723 120.369 65.9392 120.369 63.3037V54.9455C120.369 54.5188 120.143 54.0795 119.691 53.6277C119.24 53.1508 118.813 52.9124 118.411 52.9124C118.035 52.9124 117.32 53.4395 116.265 54.4937V68.9512ZM135.991 54.3431C135.991 54.3431 135.979 58.7983 135.954 67.7088C135.954 70.8714 135.765 72.7664 135.389 73.3939C135.113 74.0465 134.159 75.038 132.527 76.3683C130.896 77.6986 129.666 78.3637 128.838 78.3637C128.009 78.3637 126.943 77.9245 125.638 77.046C124.332 76.1926 123.353 75.2011 122.701 74.0716L126.579 71.3985L126.955 71.8879C127.884 73.0676 128.511 73.6575 128.838 73.6575C129.189 73.6575 129.553 73.4943 129.93 73.168C130.331 72.8417 130.607 72.5154 130.758 72.1891C130.934 71.8628 131.021 70.6831 131.021 68.65V55.962C131.021 54.6819 130.871 53.6905 130.57 52.9877C130.268 52.2849 129.792 51.6699 129.139 51.1428L133.28 48.2438C135.088 49.6745 135.991 51.7076 135.991 54.3431ZM132.678 40.7891C132.954 40.7891 133.569 41.2033 134.523 42.0316C135.477 42.8347 135.954 43.3869 135.954 43.6881C135.954 43.9642 135.464 44.5164 134.485 45.3447C133.531 46.173 132.916 46.5872 132.64 46.5872C132.389 46.5872 131.787 46.1856 130.833 45.3824C129.879 44.5541 129.402 44.0019 129.402 43.7258C129.402 43.4246 129.879 42.8598 130.833 42.0316C131.812 41.2033 132.427 40.7891 132.678 40.7891Z" fill="url(#paint7_linear_119_15)"/>
<defs>
<linearGradient id="paint0_linear_119_15" x1="36.5859" y1="31.1585" x2="36.5859" y2="68.4375" gradientUnits="userSpaceOnUse">
<stop stop-color="white"/>
<stop offset="1" stop-color="#92AF19" stop-opacity="0.572549"/>
</linearGradient>
<linearGradient id="paint1_linear_119_15" x1="36.5859" y1="31.1585" x2="36.5859" y2="68.4375" gradientUnits="userSpaceOnUse">
<stop stop-color="white"/>
<stop offset="1" stop-color="#92AF19" stop-opacity="0.572549"/>
</linearGradient>
<linearGradient id="paint2_linear_119_15" x1="36.5859" y1="31.1585" x2="36.5859" y2="68.4375" gradientUnits="userSpaceOnUse">
<stop stop-color="white"/>
<stop offset="1" stop-color="#92AF19" stop-opacity="0.572549"/>
</linearGradient>
<linearGradient id="paint3_linear_119_15" x1="36.5001" y1="4.5625" x2="36.5001" y2="38.7846" gradientUnits="userSpaceOnUse">
<stop stop-color="white"/>
<stop offset="1" stop-color="#92AF19" stop-opacity="0.572549"/>
</linearGradient>
<linearGradient id="paint4_linear_119_15" x1="31.6101" y1="27.5976" x2="31.6101" y2="68.4004" gradientUnits="userSpaceOnUse">
<stop stop-color="white"/>
<stop offset="1" stop-color="#92AF19" stop-opacity="0.572549"/>
</linearGradient>
<linearGradient id="paint5_linear_119_15" x1="31.6101" y1="27.5976" x2="31.6101" y2="68.4004" gradientUnits="userSpaceOnUse">
<stop stop-color="white"/>
<stop offset="1" stop-color="#92AF19" stop-opacity="0.572549"/>
</linearGradient>
<linearGradient id="paint6_linear_119_15" x1="112.171" y1="8.60568" x2="112.171" y2="38.874" gradientUnits="userSpaceOnUse">
<stop stop-color="white"/>
<stop offset="1" stop-color="#92AF19" stop-opacity="0.572549"/>
</linearGradient>
<linearGradient id="paint7_linear_119_15" x1="115.435" y1="40.9512" x2="115.435" y2="71.2195" gradientUnits="userSpaceOnUse">
<stop stop-color="white"/>
<stop offset="1" stop-color="#92AF19" stop-opacity="0.572549"/>
</linearGradient>
</defs>
</svg>
